<svg width="112" height="171" viewBox="0 0 112 171" fill="none" xmlns="http://www.w3.org/2000/svg">
<path d="M42.5002 170.19C25.5002 170.19 9.00016 149.19 4.50026 140.19C0.000346422 131.19 0.428931 123.875 1.50172 112.69C1.85857 108.97 3.50172 104.69 5.50172 101.19C7.21601 98.1901 17.0032 80.69 19.5017 81.6901C22.0002 82.6901 27.0002 87.1901 27.5017 89.6901C28.0032 92.19 24.5032 96.1901 23.5017 101.19C22.5002 106.19 23.0002 112.19 25.5002 117.19C28.0002 122.19 30.5032 124.69 33.0017 125.19C35.5002 125.69 36.5002 125.69 39.5017 125.19C42.5032 124.69 47.0032 110.69 49.5017 111.69C52.0002 112.69 95.0032 153.69 94.5017 156.69C94.0002 159.69 78.0002 167.19 73.0002 169.19C68.0002 171.19 59.5002 170.19 42.5002 170.19Z" fill="url(#paint0_diamond_478_2035)"/>
<path d="M28.0002 31.1901C27.2798 36.0107 27.5196 37.8955 28.0002 41.1901L21.0002 34.1901C21.0383 29.9291 20.0002 28.1908 22.0002 24.6901C24.0002 21.1895 25.0002 20.6895 25.5002 16.6895C26.0743 12.0967 25.5002 9.68945 25.0002 7.19013C24.8039 6.2089 25.0002 5.68938 26.0002 6.19013C29.5002 7.68998 31.8382 11.5564 32.5002 16.1901C33.0002 19.6895 33.0002 20.6895 32.5002 23.6901C31.7718 28.0619 29.0002 28.19 28.0002 31.1901Z" fill="url(#paint1_diamond_478_2035)"/>
<path d="M73.0002 0.689453C49.6363 6.38645 42.138 17.6781 38.5002 51.6895L78.5002 91.6895C78.0986 80.5896 80.0002 77.6895 70.5002 63.1895C61.0002 48.6895 56.5002 49.6895 55.0002 32.1895C55.8367 14.6726 60.6174 8.48452 73.0002 0.689453Z" fill="url(#paint2_diamond_478_2035)"/>
<path d="M89.5002 79.6895C90.0002 85.6895 88.0788 91.5774 83.5002 96.1895L111 123.689C112 83.1895 105 72.1895 85.5002 52.6895C83.5963 50.7855 83.0321 42.1175 85.0002 36.6895C82.0002 44.9635 80.0002 42.1895 80.5002 52.6895C81.0002 63.1895 87.9444 66.2521 89.5002 79.6895Z" fill="url(#paint3_diamond_478_2035)"/>
<defs>
<radialGradient id="paint0_diamond_478_2035" cx="0" cy="0" r="1" gradientUnits="userSpaceOnUse" gradientTransform="translate(56.0002 85.1894) rotate(113.512) scale(83.9717 81.814)">
<stop offset="0.175" stop-color="#ED9621"/>
<stop offset="1" stop-color="#EE7522"/>
</radialGradient>
<radialGradient id="paint1_diamond_478_2035" cx="0" cy="0" r="1" gradientUnits="userSpaceOnUse" gradientTransform="translate(56.0002 85.1894) rotate(113.512) scale(83.9717 81.814)">
<stop offset="0.175" stop-color="#ED9621"/>
<stop offset="1" stop-color="#EE7522"/>
</radialGradient>
<radialGradient id="paint2_diamond_478_2035" cx="0" cy="0" r="1" gradientUnits="userSpaceOnUse" gradientTransform="translate(56.0002 85.1894) rotate(113.512) scale(83.9717 81.814)">
<stop offset="0.175" stop-color="#ED9621"/>
<stop offset="1" stop-color="#EE7522"/>
</radialGradient>
<radialGradient id="paint3_diamond_478_2035" cx="0" cy="0" r="1" gradientUnits="userSpaceOnUse" gradientTransform="translate(56.0002 85.1894) rotate(113.512) scale(83.9717 81.814)">
<stop offset="0.175" stop-color="#ED9621"/>
<stop offset="1" stop-color="#EE7522"/>
</radialGradient>
</defs>
</svg>
