<svg width="250" height="251" viewBox="0 0 250 251" fill="none" xmlns="http://www.w3.org/2000/svg">
<path d="M111.5 209.19C94.5002 209.19 78.0002 188.19 73.5003 179.19C69.0003 170.19 69.4289 162.875 70.5017 151.69C70.8586 147.97 72.5017 143.69 74.5017 140.19C76.216 137.19 86.0032 119.69 88.5017 120.69C91.0002 121.69 96.0002 126.19 96.5017 128.69C97.0032 131.19 93.5032 135.19 92.5017 140.19C91.5002 145.19 92.0002 151.19 94.5002 156.19C97.0002 161.19 99.5032 163.69 102.002 164.19C104.5 164.69 105.5 164.69 108.502 164.19C111.503 163.69 116.003 149.69 118.502 150.69C121 151.69 164.003 192.69 163.502 195.69C163 198.69 147 206.19 142 208.19C137 210.19 128.5 209.19 111.5 209.19Z" fill="url(#paint0_diamond_478_2036)"/>
<path d="M97.0002 70.1901C96.2798 75.0107 96.5196 76.8955 97.0002 80.1901L90.0002 73.1901C90.0383 68.9291 89.0002 67.1908 91.0002 63.6901C93.0002 60.1895 94.0002 59.6895 94.5002 55.6895C95.0743 51.0967 94.5002 48.6895 94.0002 46.1901C93.8039 45.2089 94.0002 44.6894 95.0002 45.1901C98.5002 46.69 100.838 50.5564 101.5 55.1901C102 58.6895 102 59.6895 101.5 62.6901C100.772 67.0619 98.0002 67.19 97.0002 70.1901Z" fill="url(#paint1_diamond_478_2036)"/>
<path d="M142 39.6895C118.636 45.3865 111.138 56.6781 107.5 90.6895L147.5 130.689C147.099 119.59 149 116.689 139.5 102.189C130 87.6895 125.5 88.6895 124 71.1895C124.837 53.6726 129.617 47.4845 142 39.6895Z" fill="url(#paint2_diamond_478_2036)"/>
<path d="M158.5 118.689C159 124.689 157.079 130.577 152.5 135.189L180 162.689C181 122.189 174 111.189 154.5 91.6895C152.596 89.7855 152.032 81.1175 154 75.6895C151 83.9635 149 81.1895 149.5 91.6895C150 102.189 156.944 105.252 158.5 118.689Z" fill="url(#paint3_diamond_478_2036)"/>
<path fill-rule="evenodd" clip-rule="evenodd" d="M32.3344 49.0713C31.2793 48.2111 30.7517 47.781 30.5182 47.2303C30.3254 46.7755 30.2771 46.2429 30.385 45.7608C30.5156 45.1771 30.9445 44.674 31.8023 43.6678C42.2373 31.4274 54.9321 21.3334 69.1918 13.9559C84.5889 5.98987 101.469 1.36756 118.744 0.386801C136.02 -0.59396 153.307 2.08859 169.492 8.26158C185.678 14.4346 200.402 23.9611 212.716 36.2272C225.031 48.4932 234.662 63.2268 240.989 79.4784C247.316 95.73 250.2 113.139 249.453 130.584C248.706 148.029 244.346 165.122 236.654 180.762C229.541 195.225 219.724 208.149 207.757 218.828C206.755 219.722 206.254 220.17 205.665 220.312C205.18 220.429 204.64 220.387 204.178 220.197C203.618 219.966 203.179 219.432 202.3 218.363L202.03 218.034L32.8867 49.5215L32.3344 49.0713ZM216.231 170.533C211.921 179.295 206.396 187.365 199.839 194.507C199.379 195.008 198.595 195.02 198.113 194.541L56.0395 52.9963C55.5638 52.5224 55.5659 51.7508 56.0503 51.2859C63.042 44.5753 70.9668 38.8936 79.5935 34.4304C92.1565 27.9307 105.93 24.1592 120.025 23.359C134.121 22.5588 148.226 24.7475 161.432 29.7843C174.638 34.821 186.652 42.594 196.7 52.6023C206.747 62.6106 214.606 74.6322 219.768 87.8924C224.931 101.153 227.284 115.357 226.674 129.591C226.065 143.825 222.508 157.772 216.231 170.533ZM192.629 228.771C192.574 228.172 192.198 227.598 191.445 226.451L183.086 213.713C183.086 213.713 183.086 213.713 183.086 213.713V213.713C183.086 213.713 183.086 213.713 183.086 213.712C182.332 212.562 181.954 211.987 181.456 211.701C181.026 211.453 180.566 211.348 180.07 211.385C179.497 211.428 178.886 211.797 177.665 212.533C158.736 223.947 136.575 228.92 114.519 226.641C91.1721 224.229 69.3717 213.838 52.7953 197.221C36.2188 180.604 25.8808 158.779 23.5252 135.426C21.2998 113.364 26.3271 91.2156 37.7865 72.3147C38.526 71.0949 38.8958 70.485 38.9403 69.912C38.9788 69.4167 38.8752 68.9562 38.6283 68.5251C38.3426 68.0264 37.7685 67.6477 36.6203 66.8904L36.6202 66.8903L23.9021 58.501C22.7566 57.7454 22.1839 57.3676 21.5849 57.3108C21.0903 57.2639 20.5649 57.3802 20.1363 57.6314C19.6172 57.9357 19.2676 58.5033 18.5684 59.6384C4.20078 82.9658 -2.12405 110.405 0.6328 137.735C3.51986 166.356 16.19 193.105 36.506 213.471C56.822 233.836 83.5404 246.571 112.154 249.528C139.477 252.351 166.932 246.093 190.294 231.782C191.431 231.086 192 230.737 192.305 230.219C192.557 229.791 192.675 229.266 192.629 228.771Z" fill="#1C519F"/>
<defs>
<radialGradient id="paint0_diamond_478_2036" cx="0" cy="0" r="1" gradientUnits="userSpaceOnUse" gradientTransform="translate(125 124.189) rotate(113.512) scale(83.9717 81.814)">
<stop offset="0.175" stop-color="#ED9621"/>
<stop offset="1" stop-color="#EE7522"/>
</radialGradient>
<radialGradient id="paint1_diamond_478_2036" cx="0" cy="0" r="1" gradientUnits="userSpaceOnUse" gradientTransform="translate(125 124.189) rotate(113.512) scale(83.9717 81.814)">
<stop offset="0.175" stop-color="#ED9621"/>
<stop offset="1" stop-color="#EE7522"/>
</radialGradient>
<radialGradient id="paint2_diamond_478_2036" cx="0" cy="0" r="1" gradientUnits="userSpaceOnUse" gradientTransform="translate(125 124.189) rotate(113.512) scale(83.9717 81.814)">
<stop offset="0.175" stop-color="#ED9621"/>
<stop offset="1" stop-color="#EE7522"/>
</radialGradient>
<radialGradient id="paint3_diamond_478_2036" cx="0" cy="0" r="1" gradientUnits="userSpaceOnUse" gradientTransform="translate(125 124.189) rotate(113.512) scale(83.9717 81.814)">
<stop offset="0.175" stop-color="#ED9621"/>
<stop offset="1" stop-color="#EE7522"/>
</radialGradient>
</defs>
</svg>
