<svg width="166" height="53" viewBox="0 0 166 53" fill="none" xmlns="http://www.w3.org/2000/svg">
<path d="M86.7583 51.3684H1.91111C1.40792 51.3684 1 50.9605 1 50.4573V1.89054C1 1.38735 1.40792 0.979431 1.91111 0.979431H86.7583M107.372 51.3684H164.089C164.592 51.3684 165 50.9605 165 50.4573V1.89054C165 1.38735 164.592 0.979431 164.089 0.979431H107.372" stroke="#1C519F" stroke-width="1.93611"/>
<path d="M86.8152 52.2786V50.4792C89.8269 51.4426 92.3469 52.042 94.7487 52.2772L86.8152 52.2786ZM107.315 52.275L99.3624 52.2764C101.767 52.0404 104.293 51.4407 107.315 50.4791V52.275Z" fill="#1C519F" stroke="#1C519F" stroke-width="0.113889"/>
<path d="M86.8152 0.0569397V1.85803C89.8274 0.893661 92.3476 0.293657 94.7498 0.0583109L86.8152 0.0569397ZM107.315 0.0604823L99.3614 0.0591078C101.766 0.295208 104.293 0.89557 107.315 1.85816V0.0604823Z" fill="#1C519F" stroke="#1C519F" stroke-width="0.113889"/>
<path d="M126.595 41.3661V10.9817C126.595 10.4155 126.878 10.1324 127.444 10.1324H134.804C135.182 10.1324 135.371 10.2268 135.748 10.6986L145.939 24.5697C146.316 25.1359 147.166 25.1359 147.166 24.5697V10.9817C147.166 10.4155 147.449 10.1324 148.015 10.1324H155.186C155.658 10.1324 156.036 10.4155 156.036 10.9817V41.3661C156.036 41.9322 155.753 42.2153 155.186 42.2153L147.638 42.2153C147.26 42.2153 147.071 41.9322 146.883 41.7435C146.694 41.5548 136.786 27.778 136.786 27.778C136.503 27.4006 136.288 27.3062 136.031 27.3062C135.748 27.3062 135.465 27.4949 135.465 27.778V41.3661C135.465 41.9322 135.182 42.2153 134.616 42.2153H127.444C126.878 42.2153 126.595 41.9322 126.595 41.3661Z" fill="#1C519F"/>
<path fill-rule="evenodd" clip-rule="evenodd" d="M79.5716 11.903L79.5715 11.903C79.3724 11.7407 79.2729 11.6595 79.2288 11.5556C79.1924 11.4698 79.1833 11.3692 79.2037 11.2783C79.2283 11.1681 79.3092 11.0732 79.4711 10.8833C81.4405 8.57322 83.8362 6.66827 86.5274 5.27595C89.4332 3.77259 92.6188 2.90025 95.8791 2.71516C99.1393 2.53007 102.402 3.03633 105.456 4.20131C108.511 5.36629 111.29 7.16416 113.614 9.47905C115.938 11.7939 117.755 14.5745 118.949 17.6415C120.144 20.7086 120.688 23.9941 120.547 27.2863C120.406 30.5785 119.583 33.8044 118.131 36.7561C116.789 39.4855 114.936 41.9245 112.678 43.9399C112.489 44.1087 112.394 44.1931 112.283 44.22C112.191 44.2421 112.089 44.2343 112.002 44.1983C111.897 44.1547 111.814 44.0539 111.648 43.8523L111.648 43.8523L111.648 43.8522L111.597 43.7902L79.6758 11.988L79.5716 11.903ZM114.277 34.8256C113.464 36.4793 112.421 38.0022 111.183 39.3501C111.097 39.4446 110.949 39.4469 110.858 39.3564L84.0452 12.6438C83.9555 12.5543 83.9559 12.4087 84.0473 12.321C85.3668 11.0545 86.8624 9.98228 88.4904 9.13997C90.8613 7.91332 93.4606 7.20156 96.1208 7.05054C98.7809 6.89951 101.443 7.31259 103.935 8.26313C106.427 9.21368 108.695 10.6806 110.591 12.5694C112.487 14.4582 113.97 16.7269 114.945 19.2294C115.919 21.7319 116.363 24.4127 116.248 27.0989C116.133 29.7851 115.462 32.4172 114.277 34.8256ZM109.823 45.8167C109.813 45.7036 109.741 45.5954 109.599 45.3788L108.022 42.9748C107.88 42.7578 107.808 42.6492 107.714 42.5951C107.633 42.5483 107.546 42.5285 107.453 42.5356C107.345 42.5437 107.229 42.6132 106.999 42.7522C103.427 44.9062 99.2443 45.8448 95.0818 45.4147C90.6757 44.9594 86.5615 42.9984 83.4331 39.8625C80.3048 36.7265 78.3537 32.6075 77.9092 28.2003C77.4892 24.0368 78.438 19.8568 80.6006 16.2898C80.7402 16.0596 80.81 15.9445 80.8184 15.8364C80.8256 15.7429 80.8061 15.656 80.7595 15.5746C80.7056 15.4805 80.5972 15.409 80.3805 15.2661L77.9803 13.6828C77.7641 13.5402 77.6561 13.4689 77.543 13.4582C77.4497 13.4494 77.3505 13.4713 77.2696 13.5187C77.1717 13.5762 77.1057 13.6833 76.9737 13.8975C74.2622 18.2999 73.0686 23.4783 73.5889 28.6361C74.1337 34.0375 76.5249 39.0857 80.359 42.9291C84.1931 46.7726 89.2354 49.176 94.6355 49.7339C99.792 50.2667 104.973 49.0857 109.382 46.3849C109.597 46.2535 109.704 46.1877 109.762 46.0899C109.809 46.0091 109.832 45.9101 109.823 45.8167Z" fill="#1C519F"/>
<path d="M43.2738 10.1324H68.1852C68.7514 10.1324 69.0345 10.4155 69.0345 10.9817V14.9449C69.0345 15.511 68.7514 15.7941 68.1852 15.7941H51.7663C51.3889 15.7941 51.2945 15.8885 51.2945 16.2659V22.8712C51.2945 23.2487 51.3889 23.343 51.7663 23.343H62.1461C62.7122 23.343 62.9953 23.6261 62.9953 24.1923V28.1555C62.9953 28.7216 62.7122 29.0047 62.1461 29.0047H51.7663C51.3889 29.0047 51.2945 29.0991 51.2945 29.4765V36.0818C51.2945 36.4593 51.3889 36.5536 51.7663 36.5536H68.1852C68.7514 36.5536 69.0345 36.8367 69.0345 37.4029V41.3661C69.0345 41.9322 68.7514 42.2153 68.1852 42.2153H43.2738C42.7076 42.2153 42.4246 41.9322 42.4246 41.3661V10.9817C42.4246 10.4155 42.7076 10.1324 43.2738 10.1324Z" fill="#1C519F"/>
<path d="M10.8136 10.1324H17.9851C18.5512 10.1324 18.8343 10.4155 18.8343 10.9817V36.0818C18.8343 36.4593 18.9287 36.5536 19.3061 36.5536H35.725C36.2912 36.5536 36.5742 36.8367 36.5742 37.4029V41.3661C36.5742 41.9322 36.2912 42.2153 35.725 42.2153H10.8136C10.2474 42.2153 9.96436 41.9322 9.96436 41.3661V10.9817C9.96436 10.4155 10.2474 10.1324 10.8136 10.1324Z" fill="#1C519F"/>
<path d="M94.5121 42.1211C91.3038 42.1211 88.1898 38.1579 87.3406 36.4594C86.4914 34.7609 86.5723 33.3803 86.7747 31.2695C86.8421 30.5674 87.1522 29.7597 87.5296 29.0992C87.8531 28.533 89.7002 25.2304 90.1717 25.4191C90.6433 25.6078 91.5869 26.4571 91.6815 26.9289C91.7761 27.4007 91.1156 28.1556 90.9266 29.0992C90.7376 30.0428 90.832 31.1751 91.3038 32.1188C91.7756 33.0624 92.2479 33.5342 92.7195 33.6285C93.191 33.7229 93.3797 33.7229 93.9462 33.6285C94.5126 33.5342 95.3619 30.8921 95.8334 31.0808C96.3049 31.2695 104.421 39.0071 104.326 39.5733C104.231 40.1395 101.212 41.5549 100.268 41.9323C99.3245 42.3098 97.7204 42.1211 94.5121 42.1211Z" fill="url(#paint0_diamond_255_2027)"/>
<path d="M91.7756 15.8886C91.6396 16.7984 91.6849 17.1541 91.7756 17.7758L90.4545 16.4548C90.4617 15.6506 90.2658 15.3226 90.6433 14.6619C91.0207 14.0013 91.2094 13.9069 91.3038 13.152C91.4121 12.2852 91.3038 11.831 91.2094 11.3593C91.1724 11.1741 91.2094 11.076 91.3981 11.1705C92.0587 11.4536 92.4999 12.1833 92.6248 13.0578C92.7192 13.7182 92.7192 13.9069 92.6248 14.4732C92.4874 15.2982 91.9643 15.3224 91.7756 15.8886Z" fill="url(#paint1_diamond_255_2027)"/>
<path d="M100.268 10.1324C95.8588 11.2076 94.4437 13.3386 93.7572 19.7573L101.306 27.3062C101.23 25.2114 101.589 24.6641 99.7963 21.9276C98.0034 19.1911 97.1542 19.3799 96.8711 16.0772C97.029 12.7714 97.9312 11.6036 100.268 10.1324Z" fill="url(#paint2_diamond_255_2027)"/>
<path d="M103.382 25.0415C103.476 26.1739 103.114 27.2851 102.25 28.1555L107.44 33.3453C107.628 25.7021 106.307 23.6261 102.627 19.946C102.268 19.5867 102.161 17.9509 102.533 16.9265C101.967 18.488 101.589 17.9644 101.684 19.946C101.778 21.9276 103.088 22.5056 103.382 25.0415Z" fill="url(#paint3_diamond_255_2027)"/>
<defs>
<radialGradient id="paint0_diamond_255_2027" cx="0" cy="0" r="1" gradientUnits="userSpaceOnUse" gradientTransform="translate(97.0598 26.0795) rotate(113.512) scale(15.8474 15.4402)">
<stop offset="0.175" stop-color="#ED9621"/>
<stop offset="1" stop-color="#EE7522"/>
</radialGradient>
<radialGradient id="paint1_diamond_255_2027" cx="0" cy="0" r="1" gradientUnits="userSpaceOnUse" gradientTransform="translate(97.0598 26.0795) rotate(113.512) scale(15.8474 15.4402)">
<stop offset="0.175" stop-color="#ED9621"/>
<stop offset="1" stop-color="#EE7522"/>
</radialGradient>
<radialGradient id="paint2_diamond_255_2027" cx="0" cy="0" r="1" gradientUnits="userSpaceOnUse" gradientTransform="translate(97.0598 26.0795) rotate(113.512) scale(15.8474 15.4402)">
<stop offset="0.175" stop-color="#ED9621"/>
<stop offset="1" stop-color="#EE7522"/>
</radialGradient>
<radialGradient id="paint3_diamond_255_2027" cx="0" cy="0" r="1" gradientUnits="userSpaceOnUse" gradientTransform="translate(97.0598 26.0795) rotate(113.512) scale(15.8474 15.4402)">
<stop offset="0.175" stop-color="#ED9621"/>
<stop offset="1" stop-color="#EE7522"/>
</radialGradient>
</defs>
</svg>
