<svg width="196" height="62" viewBox="0 0 196 62" fill="none" xmlns="http://www.w3.org/2000/svg">
<path d="M102.4 60.1386H3.05366C2.47174 60.1386 2 59.6668 2 59.0849V2.2003C2 1.61838 2.47174 1.14664 3.05366 1.14664H102.4M126.533 60.1386H192.946C193.528 60.1386 194 59.6668 194 59.0849V2.2003C194 1.61838 193.528 1.14664 192.946 1.14664H126.533" stroke="#E9F0FB" stroke-width="2.23902"/>
<path d="M102.466 61.205V59.0965C105.999 60.2267 108.954 60.9291 111.771 61.2034L102.466 61.205ZM126.467 61.2008L117.139 61.2024C119.96 60.9273 122.922 60.2245 126.467 59.0964V61.2008Z" fill="#E9F0FB" stroke="#E9F0FB" stroke-width="0.131707"/>
<path d="M102.4 2.67029e-05V2.26669C107.035 0.777381 110.67 0.023277 114.292 0.00208187L114.616 0.0021379C118.24 0.0245895 121.882 0.780209 126.533 2.26669V0.00419736L114.616 0.0021379C114.508 0.00146961 114.4 0.00145078 114.292 0.00208187L102.4 2.67029e-05Z" fill="#E9F0FB"/>
<path d="M149.038 48.4285V12.8566C149.038 12.1938 149.37 11.8624 150.032 11.8624H158.649C159.091 11.8624 159.312 11.9728 159.754 12.5252L171.685 28.7646C172.127 29.4274 173.121 29.4274 173.121 28.7646V12.8566C173.121 12.1938 173.452 11.8624 174.115 11.8624H182.511C183.063 11.8624 183.505 12.1938 183.505 12.8566V48.4285C183.505 49.0914 183.174 49.4228 182.511 49.4228L173.673 49.4228C173.231 49.4228 173.01 49.0914 172.79 48.8704C172.569 48.6495 160.969 32.5206 160.969 32.5206C160.638 32.0787 160.387 31.9682 160.085 31.9682C159.754 31.9682 159.422 32.1892 159.422 32.5206V48.4285C159.422 49.0914 159.091 49.4228 158.428 49.4228H150.032C149.37 49.4228 149.038 49.0914 149.038 48.4285Z" fill="#E9F0FB"/>
<path fill-rule="evenodd" clip-rule="evenodd" d="M93.9784 13.9286C93.7481 13.7409 93.6329 13.647 93.582 13.5269C93.5399 13.4276 93.5293 13.3115 93.5528 13.2062C93.5813 13.0789 93.6749 12.969 93.8621 12.7492C96.1689 10.0412 98.9761 7.80829 102.13 6.17667C105.532 4.41664 109.261 3.39537 113.078 3.17867C116.895 2.96198 120.715 3.55467 124.291 4.91856C127.867 6.28244 131.12 8.38726 133.841 11.0974C136.561 13.8075 138.689 17.0628 140.087 20.6535C141.485 24.2441 142.122 28.0906 141.957 31.9449C141.792 35.7992 140.829 39.5758 139.129 43.0315C137.556 46.2301 135.385 49.088 132.737 51.4489C132.518 51.6441 132.409 51.7417 132.28 51.7727C132.174 51.7982 132.056 51.7891 131.956 51.7475C131.834 51.6971 131.738 51.5805 131.546 51.3473L131.48 51.2665L94.1085 14.0347L93.9784 13.9286ZM134.617 40.7714C133.659 42.7198 132.428 44.5132 130.967 46.0987C130.867 46.2077 130.696 46.2102 130.591 46.1056L99.1946 14.826C99.0909 14.7227 99.0912 14.5545 99.1966 14.453C100.749 12.9579 102.51 11.6928 104.428 10.7004C107.204 9.26433 110.247 8.43104 113.361 8.25423C116.475 8.07743 119.592 8.56102 122.51 9.67386C125.427 10.7867 128.082 12.5041 130.302 14.7153C132.522 16.9266 134.258 19.5827 135.399 22.5125C136.539 25.4422 137.059 28.5806 136.925 31.7255C136.79 34.8703 136.004 37.9518 134.617 40.7714ZM129.405 53.6413C129.393 53.5105 129.311 53.3853 129.147 53.1349L127.288 50.3029C127.124 50.0519 127.041 49.9264 126.933 49.8638C126.839 49.8097 126.738 49.7868 126.63 49.795C126.505 49.8045 126.372 49.8849 126.105 50.0457C121.921 52.5712 117.021 53.672 112.145 53.1682C106.986 52.6352 102.17 50.3393 98.5072 46.668C94.8448 42.9966 92.5606 38.1744 92.0402 33.0147C91.5481 28.1369 92.6608 23.2397 95.1966 19.0618L95.1966 19.0617C95.358 18.7957 95.4387 18.6627 95.4485 18.5376C95.4569 18.4295 95.4343 18.3289 95.3805 18.2348C95.3181 18.126 95.1928 18.0433 94.9422 17.878L92.1147 16.0129C91.8647 15.848 91.7397 15.7655 91.609 15.7531C91.5011 15.7429 91.3865 15.7682 91.2929 15.823C91.1796 15.8894 91.1033 16.0133 90.9505 16.2611C87.7722 21.417 86.3728 27.4831 86.9823 33.525C87.6201 39.8486 90.4195 45.7586 94.9082 50.2582C99.3969 54.7578 105.3 57.5716 111.622 58.2248C117.663 58.849 123.732 57.4643 128.896 54.2985C129.144 54.1464 129.268 54.0703 129.335 53.9572C129.39 53.8638 129.415 53.7492 129.405 53.6413Z" fill="#E9F0FB"/>
<path d="M51.4913 11.8624H80.6559C81.3187 11.8624 81.6501 12.1938 81.6501 12.8566V17.4964C81.6501 18.1593 81.3187 18.4907 80.6559 18.4907H61.4338C60.9919 18.4907 60.8814 18.6011 60.8814 19.043V26.7761C60.8814 27.2179 60.9919 27.3284 61.4338 27.3284H73.5857C74.2485 27.3284 74.5799 27.6598 74.5799 28.3227V32.9625C74.5799 33.6253 74.2485 33.9567 73.5857 33.9567H61.4338C60.9919 33.9567 60.8814 34.0672 60.8814 34.5091V42.2421C60.8814 42.684 60.9919 42.7945 61.4338 42.7945H80.6559C81.3187 42.7945 81.6501 43.1259 81.6501 43.7887V48.4285C81.6501 49.0914 81.3187 49.4228 80.6559 49.4228H51.4913C50.8285 49.4228 50.4971 49.0914 50.4971 48.4285V12.8566C50.4971 12.1938 50.8285 11.8624 51.4913 11.8624Z" fill="#E9F0FB"/>
<path d="M13.4889 11.8624H21.8847C22.5476 11.8624 22.879 12.1938 22.879 12.8566V42.2421C22.879 42.684 22.9894 42.7945 23.4313 42.7945H42.6534C43.3163 42.7945 43.6477 43.1259 43.6477 43.7887V48.4285C43.6477 49.0914 43.3163 49.4228 42.6534 49.4228H13.4889C12.826 49.4228 12.4946 49.0914 12.4946 48.4285V12.8566C12.4946 12.1938 12.826 11.8624 13.4889 11.8624Z" fill="#E9F0FB"/>
<path d="M111.478 49.3125C107.722 49.3125 104.076 44.6727 103.082 42.6842C102.088 40.6957 102.182 39.0794 102.419 36.6082C102.498 35.7862 102.861 34.8407 103.303 34.0674C103.682 33.4045 105.844 29.538 106.396 29.759C106.948 29.9799 108.053 30.9742 108.164 31.5265C108.275 32.0789 107.501 32.9626 107.28 34.0674C107.059 35.1721 107.169 36.4977 107.722 37.6025C108.274 38.7072 108.827 39.2595 109.379 39.37C109.931 39.4805 110.152 39.4805 110.815 39.37C111.478 39.2595 112.473 36.1663 113.025 36.3873C113.577 36.6082 123.078 45.6669 122.967 46.3297C122.856 46.9926 119.321 48.6496 118.217 49.0915C117.112 49.5334 115.234 49.3125 111.478 49.3125Z" fill="url(#paint0_diamond_108_1396)"/>
<path d="M108.274 18.6013C108.115 19.6664 108.168 20.0828 108.274 20.8108L106.727 19.2642C106.736 18.3227 106.507 17.9386 106.948 17.1652C107.39 16.3917 107.611 16.2813 107.722 15.3975C107.849 14.3827 107.722 13.8509 107.611 13.2987C107.568 13.0819 107.611 12.9671 107.832 13.0777C108.605 13.4091 109.122 14.2634 109.268 15.2872C109.379 16.0603 109.379 16.2813 109.268 16.9442C109.107 17.9102 108.495 17.9385 108.274 18.6013Z" fill="url(#paint1_diamond_108_1396)"/>
<path d="M118.217 11.8624C113.054 13.1211 111.398 15.6159 110.594 23.1305L119.432 31.9683C119.343 29.5158 119.763 28.8751 117.664 25.6714C115.565 22.4677 114.571 22.6886 114.24 18.8221C114.424 14.9519 115.481 13.5847 118.217 11.8624Z" fill="url(#paint2_diamond_108_1396)"/>
<path d="M121.862 29.3169C121.973 30.6426 121.548 31.9435 120.536 32.9625L126.612 39.0385C126.833 30.0902 125.287 27.6599 120.978 23.3515C120.558 22.9308 120.433 21.0157 120.868 19.8164C120.205 21.6445 119.763 21.0316 119.874 23.3515C119.984 25.6714 121.518 26.348 121.862 29.3169Z" fill="url(#paint3_diamond_108_1396)"/>
<defs>
<radialGradient id="paint0_diamond_108_1396" cx="0" cy="0" r="1" gradientUnits="userSpaceOnUse" gradientTransform="translate(114.46 30.5321) rotate(113.512) scale(18.553 18.0763)">
<stop offset="0.175" stop-color="#ED9621"/>
<stop offset="1" stop-color="#EE7522"/>
</radialGradient>
<radialGradient id="paint1_diamond_108_1396" cx="0" cy="0" r="1" gradientUnits="userSpaceOnUse" gradientTransform="translate(114.46 30.5321) rotate(113.512) scale(18.553 18.0763)">
<stop offset="0.175" stop-color="#ED9621"/>
<stop offset="1" stop-color="#EE7522"/>
</radialGradient>
<radialGradient id="paint2_diamond_108_1396" cx="0" cy="0" r="1" gradientUnits="userSpaceOnUse" gradientTransform="translate(114.46 30.5321) rotate(113.512) scale(18.553 18.0763)">
<stop offset="0.175" stop-color="#ED9621"/>
<stop offset="1" stop-color="#EE7522"/>
</radialGradient>
<radialGradient id="paint3_diamond_108_1396" cx="0" cy="0" r="1" gradientUnits="userSpaceOnUse" gradientTransform="translate(114.46 30.5321) rotate(113.512) scale(18.553 18.0763)">
<stop offset="0.175" stop-color="#ED9621"/>
<stop offset="1" stop-color="#EE7522"/>
</radialGradient>
</defs>
</svg>
