<svg width="1440" height="440" viewBox="0 0 1440 440" fill="none" xmlns="http://www.w3.org/2000/svg">
<path fill-rule="evenodd" clip-rule="evenodd" d="M0 113.298L69.6275 80.3278C139.255 48.357 277.745 -17.583 417 4.39701C556.255 26.377 694.745 135.278 834 146.268C973.255 157.258 1111.74 69.3378 1251 69.3378C1390.26 69.3378 1528.74 157.258 1598.37 200.219L1668 244.178V440H1598.37C1528.74 440 1390.26 440 1251 440C1111.74 440 973.255 440 834 440C694.745 440 556.255 440 417 440C277.745 440 139.255 440 69.6275 440H0V113.298Z" fill="#040B16"/>
</svg>
